<svg xmlns="http://www.w3.org/2000/svg" xmlns:xlink="http://www.w3.org/1999/xlink" width="500" zoomAndPan="magnify" viewBox="0 0 375 374.999991" height="500" preserveAspectRatio="xMidYMid meet" version="1.0"><defs><g/></defs><g fill="#ffffff" fill-opacity="1"><g transform="translate(32.667153, 213.06397)"><g><path d="M 33.84375 -61.234375 C 32.507812 -60.742188 30.78125 -60.285156 28.65625 -59.859375 C 26.894531 -59.503906 25.628906 -59.101562 24.859375 -58.65625 C 24.085938 -58.21875 23.5 -57.367188 23.09375 -56.109375 C 22.6875 -54.859375 22.484375 -52.859375 22.484375 -50.109375 L 22.484375 -29.203125 C 22.484375 -21.328125 24.070312 -15.160156 27.25 -10.703125 C 30.4375 -6.242188 35.851562 -4.015625 43.5 -4.015625 C 57.507812 -4.015625 64.515625 -12.6875 64.515625 -30.03125 L 64.515625 -49.28125 C 64.515625 -52.1875 64.3125 -54.304688 63.90625 -55.640625 C 63.5 -56.984375 62.867188 -57.90625 62.015625 -58.40625 C 61.171875 -58.914062 59.75 -59.414062 57.75 -59.90625 C 55.863281 -60.394531 54.316406 -60.851562 53.109375 -61.28125 L 53.109375 -63.78125 L 79.515625 -63.78125 L 79.609375 -61.234375 C 79.117188 -60.972656 78.585938 -60.769531 78.015625 -60.625 C 77.441406 -60.476562 76.679688 -60.320312 75.734375 -60.15625 C 74.492188 -59.925781 73.5 -59.703125 72.75 -59.484375 C 72 -59.273438 71.300781 -58.914062 70.65625 -58.40625 C 70.019531 -57.90625 69.570312 -57.21875 69.3125 -56.34375 C 68.789062 -54.539062 68.53125 -52.445312 68.53125 -50.0625 C 68.53125 -48.5 68.5625 -46.019531 68.625 -42.625 C 68.695312 -39.226562 68.734375 -36.679688 68.734375 -34.984375 C 68.734375 -27.535156 68.085938 -21.242188 66.796875 -16.109375 C 65.503906 -10.984375 62.773438 -6.800781 58.609375 -3.5625 C 54.453125 -0.332031 48.320312 1.28125 40.21875 1.28125 C 35.519531 1.28125 31.144531 0.535156 27.09375 -0.953125 C 23.039062 -2.441406 19.679688 -4.753906 17.015625 -7.890625 C 14.359375 -11.023438 12.785156 -14.941406 12.296875 -19.640625 C 11.898438 -23.035156 11.703125 -27.332031 11.703125 -32.53125 C 11.703125 -35.53125 11.753906 -38.5 11.859375 -41.4375 C 11.921875 -45.363281 11.953125 -48.273438 11.953125 -50.171875 C 11.953125 -52.585938 11.789062 -54.460938 11.46875 -55.796875 C 11.132812 -57.097656 10.320312 -58.078125 9.03125 -58.734375 C 7.75 -59.390625 6.015625 -59.992188 3.828125 -60.546875 C 2.742188 -60.835938 1.894531 -61.082031 1.28125 -61.28125 L 1.421875 -63.78125 L 33.75 -63.78125 Z M 33.84375 -61.234375 "/></g></g></g><g fill="#ffffff" fill-opacity="1"><g transform="translate(106.33342, 213.06397)"><g><path d="M 33.84375 -30.90625 C 33.394531 -30.875 32.628906 -30.859375 31.546875 -30.859375 C 30.597656 -34.160156 29.164062 -36.851562 27.25 -38.9375 C 25.34375 -41.03125 22.90625 -42.078125 19.9375 -42.078125 C 17.882812 -42.078125 16.257812 -41.570312 15.0625 -40.5625 C 13.875 -39.550781 13.28125 -38.082031 13.28125 -36.15625 C 13.28125 -34.8125 13.769531 -33.566406 14.75 -32.421875 C 15.726562 -31.285156 16.925781 -30.285156 18.34375 -29.421875 C 19.769531 -28.554688 21.640625 -27.535156 23.953125 -26.359375 C 24.503906 -26.097656 25.335938 -25.671875 26.453125 -25.078125 C 30.109375 -23.117188 32.773438 -21.117188 34.453125 -19.078125 C 36.140625 -17.035156 36.984375 -14.546875 36.984375 -11.609375 C 36.984375 -8.898438 36.3125 -6.601562 34.96875 -4.71875 C 33.632812 -2.84375 31.789062 -1.421875 29.4375 -0.453125 C 27.09375 0.503906 24.398438 0.984375 21.359375 0.984375 C 18.679688 0.984375 15.96875 0.660156 13.21875 0.015625 C 10.476562 -0.617188 8.226562 -1.472656 6.46875 -2.546875 L 6.46875 -14.5 C 7.738281 -14.664062 8.601562 -14.75 9.0625 -14.75 C 9.8125 -11.125 11.140625 -8.164062 13.046875 -5.875 C 14.960938 -3.59375 17.585938 -2.453125 20.921875 -2.453125 C 23.304688 -2.453125 25.289062 -3.046875 26.875 -4.234375 C 28.457031 -5.429688 29.25 -7.007812 29.25 -8.96875 C 29.25 -10.207031 28.890625 -11.300781 28.171875 -12.25 C 27.453125 -13.195312 26.519531 -14.03125 25.375 -14.75 C 24.226562 -15.46875 22.515625 -16.429688 20.234375 -17.640625 C 17.160156 -19.265625 14.828125 -20.585938 13.234375 -21.609375 C 10.742188 -23.140625 8.867188 -24.851562 7.609375 -26.75 C 6.359375 -28.644531 5.734375 -30.898438 5.734375 -33.515625 C 5.734375 -36.023438 6.367188 -38.171875 7.640625 -39.953125 C 8.910156 -41.734375 10.640625 -43.078125 12.828125 -43.984375 C 15.015625 -44.898438 17.484375 -45.359375 20.234375 -45.359375 C 22.742188 -45.359375 25.132812 -45.046875 27.40625 -44.421875 C 29.675781 -43.804688 31.726562 -42.925781 33.5625 -41.78125 Z M 33.84375 -30.90625 "/></g></g></g><g fill="#ffffff" fill-opacity="1"><g transform="translate(141.545332, 213.06397)"><g><path d="M 19.203125 -11.46875 C 19.203125 -8.71875 19.765625 -6.597656 20.890625 -5.109375 C 22.015625 -3.628906 23.882812 -2.742188 26.5 -2.453125 C 26.5 -1.960938 26.484375 -1.472656 26.453125 -0.984375 C 26.421875 -0.492188 26.40625 -0.164062 26.40625 0 L 2.296875 0 L 2.25 -2.453125 C 2.539062 -2.648438 2.921875 -2.828125 3.390625 -2.984375 C 3.867188 -3.148438 4.351562 -3.296875 4.84375 -3.421875 C 6.28125 -3.816406 7.40625 -4.25 8.21875 -4.71875 C 9.039062 -5.195312 9.535156 -5.910156 9.703125 -6.859375 C 9.960938 -8.265625 10.09375 -9.703125 10.09375 -11.171875 L 10.046875 -57.265625 C 9.648438 -57.921875 8.851562 -58.566406 7.65625 -59.203125 C 6.46875 -59.835938 5.300781 -60.375 4.15625 -60.8125 C 3.019531 -61.257812 2.285156 -61.53125 1.953125 -61.625 L 2.0625 -63.34375 L 15.671875 -67.0625 L 19.203125 -67.40625 Z M 19.203125 -11.46875 "/></g></g></g><g fill="#ffffff" fill-opacity="1"><g transform="translate(164.020771, 213.06397)"><g><path d="M 30.859375 -29.828125 C 30.859375 -32.285156 30.640625 -34.363281 30.203125 -36.0625 C 29.765625 -37.757812 28.882812 -39.128906 27.5625 -40.171875 C 26.238281 -41.210938 24.347656 -41.734375 21.890625 -41.734375 C 21.046875 -41.734375 20.003906 -41.550781 18.765625 -41.1875 C 17.523438 -40.832031 16.4375 -40.320312 15.5 -39.65625 C 14.570312 -38.988281 14.109375 -38.210938 14.109375 -37.328125 C 14.109375 -36.972656 14.171875 -36.625 14.296875 -36.28125 C 14.429688 -35.9375 14.644531 -35.503906 14.9375 -34.984375 C 15.226562 -34.492188 15.441406 -34.066406 15.578125 -33.703125 C 15.710938 -33.347656 15.78125 -32.972656 15.78125 -32.578125 C 15.78125 -31.273438 15.363281 -30.1875 14.53125 -29.3125 C 13.695312 -28.445312 12.625 -28.015625 11.3125 -28.015625 C 9.675781 -28.015625 8.378906 -28.617188 7.421875 -29.828125 C 6.460938 -31.035156 5.984375 -32.488281 5.984375 -34.1875 C 5.984375 -36.738281 6.976562 -38.847656 8.96875 -40.515625 C 10.957031 -42.179688 13.363281 -43.40625 16.1875 -44.1875 C 19.007812 -44.96875 21.648438 -45.359375 24.109375 -45.359375 C 28.710938 -45.359375 32.144531 -44.679688 34.40625 -43.328125 C 36.675781 -41.972656 38.179688 -40 38.921875 -37.40625 C 39.660156 -34.8125 40.03125 -31.175781 40.03125 -26.5 L 39.921875 -24.046875 C 39.890625 -23.328125 39.847656 -22.132812 39.796875 -20.46875 C 39.753906 -18.8125 39.734375 -17.28125 39.734375 -15.875 C 39.734375 -8.519531 40.5 -4.84375 42.03125 -4.84375 C 43.144531 -4.84375 44.582031 -5.972656 46.34375 -8.234375 L 48.40625 -6.03125 C 46.96875 -3.675781 45.546875 -1.914062 44.140625 -0.75 C 42.734375 0.40625 40.890625 0.984375 38.609375 0.984375 C 36.453125 0.984375 34.675781 0.304688 33.28125 -1.046875 C 31.894531 -2.410156 31.140625 -4.164062 31.015625 -6.3125 C 28.921875 -4.03125 26.570312 -2.242188 23.96875 -0.953125 C 21.375 0.335938 18.625 0.984375 15.71875 0.984375 C 13.695312 0.984375 11.828125 0.617188 10.109375 -0.109375 C 8.398438 -0.847656 7.03125 -1.953125 6 -3.421875 C 4.96875 -4.898438 4.453125 -6.664062 4.453125 -8.71875 C 4.453125 -11.820312 5.644531 -14.398438 8.03125 -16.453125 C 10.414062 -18.515625 13.160156 -20.082031 16.265625 -21.15625 C 19.367188 -22.238281 23.15625 -23.316406 27.625 -24.390625 C 28.019531 -24.460938 29.097656 -24.726562 30.859375 -25.1875 Z M 30.859375 -22.296875 C 30.367188 -22.128906 29.75 -21.929688 29 -21.703125 C 26.1875 -20.785156 23.785156 -19.910156 21.796875 -19.078125 C 19.804688 -18.242188 18.023438 -17.125 16.453125 -15.71875 C 14.890625 -14.320312 14.109375 -12.675781 14.109375 -10.78125 C 14.109375 -8.851562 14.640625 -7.332031 15.703125 -6.21875 C 16.765625 -5.113281 18.257812 -4.5625 20.1875 -4.5625 C 22.113281 -4.5625 23.972656 -5.039062 25.765625 -6 C 27.566406 -6.96875 29.265625 -8.234375 30.859375 -9.796875 Z M 30.859375 -22.296875 "/></g></g></g><g fill="#ffffff" fill-opacity="1"><g transform="translate(207.021532, 213.06397)"><g><path d="M 23.65625 -11.90625 L 32.625 -33.703125 C 32.007812 -35.921875 31.015625 -37.78125 29.640625 -39.28125 C 28.265625 -40.789062 26.515625 -41.59375 24.390625 -41.6875 L 24.5 -44.046875 L 46.140625 -44.046875 C 46.210938 -42.929688 46.25 -42.144531 46.25 -41.6875 C 45.820312 -41.488281 45.148438 -41.226562 44.234375 -40.90625 C 42.992188 -40.476562 42.078125 -40.050781 41.484375 -39.625 C 40.898438 -39.207031 40.609375 -38.539062 40.609375 -37.625 C 40.609375 -36.9375 40.90625 -35.789062 41.5 -34.1875 L 49.484375 -12.296875 L 57.125 -32.921875 C 57.738281 -34.523438 58.046875 -35.863281 58.046875 -36.9375 C 58.046875 -37.914062 57.898438 -38.65625 57.609375 -39.15625 C 57.316406 -39.664062 56.910156 -40.035156 56.390625 -40.265625 C 55.867188 -40.492188 55.050781 -40.753906 53.9375 -41.046875 L 52.125 -41.546875 C 52.0625 -42.003906 52.03125 -42.394531 52.03125 -42.71875 C 52.03125 -43.007812 52.0625 -43.453125 52.125 -44.046875 L 69.3125 -44.046875 L 69.3125 -41.4375 C 68.40625 -41.3125 67.40625 -40.90625 66.3125 -40.21875 C 65.21875 -39.53125 64.234375 -38.703125 63.359375 -37.734375 C 62.492188 -36.773438 61.898438 -35.859375 61.578125 -34.984375 L 48.34375 0.6875 C 48.019531 0.882812 47.53125 0.984375 46.875 0.984375 C 46.257812 0.984375 45.753906 0.882812 45.359375 0.6875 L 34.25 -29.203125 L 22.4375 0.6875 C 22.039062 0.882812 21.535156 0.984375 20.921875 0.984375 C 20.234375 0.984375 19.707031 0.882812 19.34375 0.6875 L 5.6875 -34.25 C 5.0625 -35.84375 4.503906 -37.078125 4.015625 -37.953125 C 3.523438 -38.835938 2.878906 -39.597656 2.078125 -40.234375 C 1.273438 -40.878906 0.222656 -41.347656 -1.078125 -41.640625 L -0.984375 -44.046875 L 19.203125 -44.046875 C 19.234375 -43.484375 19.25 -42.695312 19.25 -41.6875 C 17.6875 -41.164062 16.46875 -40.578125 15.59375 -39.921875 C 14.726562 -39.273438 14.296875 -38.347656 14.296875 -37.140625 C 14.296875 -36.578125 14.378906 -36.050781 14.546875 -35.5625 C 14.546875 -35.4375 14.5625 -35.320312 14.59375 -35.21875 Z M 23.65625 -11.90625 "/></g></g></g><g fill="#ffffff" fill-opacity="1"><g transform="translate(270.20469, 213.06397)"><g><path d="M 30.859375 -29.828125 C 30.859375 -32.285156 30.640625 -34.363281 30.203125 -36.0625 C 29.765625 -37.757812 28.882812 -39.128906 27.5625 -40.171875 C 26.238281 -41.210938 24.347656 -41.734375 21.890625 -41.734375 C 21.046875 -41.734375 20.003906 -41.550781 18.765625 -41.1875 C 17.523438 -40.832031 16.4375 -40.320312 15.5 -39.65625 C 14.570312 -38.988281 14.109375 -38.210938 14.109375 -37.328125 C 14.109375 -36.972656 14.171875 -36.625 14.296875 -36.28125 C 14.429688 -35.9375 14.644531 -35.503906 14.9375 -34.984375 C 15.226562 -34.492188 15.441406 -34.066406 15.578125 -33.703125 C 15.710938 -33.347656 15.78125 -32.972656 15.78125 -32.578125 C 15.78125 -31.273438 15.363281 -30.1875 14.53125 -29.3125 C 13.695312 -28.445312 12.625 -28.015625 11.3125 -28.015625 C 9.675781 -28.015625 8.378906 -28.617188 7.421875 -29.828125 C 6.460938 -31.035156 5.984375 -32.488281 5.984375 -34.1875 C 5.984375 -36.738281 6.976562 -38.847656 8.96875 -40.515625 C 10.957031 -42.179688 13.363281 -43.40625 16.1875 -44.1875 C 19.007812 -44.96875 21.648438 -45.359375 24.109375 -45.359375 C 28.710938 -45.359375 32.144531 -44.679688 34.40625 -43.328125 C 36.675781 -41.972656 38.179688 -40 38.921875 -37.40625 C 39.660156 -34.8125 40.03125 -31.175781 40.03125 -26.5 L 39.921875 -24.046875 C 39.890625 -23.328125 39.847656 -22.132812 39.796875 -20.46875 C 39.753906 -18.8125 39.734375 -17.28125 39.734375 -15.875 C 39.734375 -8.519531 40.5 -4.84375 42.03125 -4.84375 C 43.144531 -4.84375 44.582031 -5.972656 46.34375 -8.234375 L 48.40625 -6.03125 C 46.96875 -3.675781 45.546875 -1.914062 44.140625 -0.75 C 42.734375 0.40625 40.890625 0.984375 38.609375 0.984375 C 36.453125 0.984375 34.675781 0.304688 33.28125 -1.046875 C 31.894531 -2.410156 31.140625 -4.164062 31.015625 -6.3125 C 28.921875 -4.03125 26.570312 -2.242188 23.96875 -0.953125 C 21.375 0.335938 18.625 0.984375 15.71875 0.984375 C 13.695312 0.984375 11.828125 0.617188 10.109375 -0.109375 C 8.398438 -0.847656 7.03125 -1.953125 6 -3.421875 C 4.96875 -4.898438 4.453125 -6.664062 4.453125 -8.71875 C 4.453125 -11.820312 5.644531 -14.398438 8.03125 -16.453125 C 10.414062 -18.515625 13.160156 -20.082031 16.265625 -21.15625 C 19.367188 -22.238281 23.15625 -23.316406 27.625 -24.390625 C 28.019531 -24.460938 29.097656 -24.726562 30.859375 -25.1875 Z M 30.859375 -22.296875 C 30.367188 -22.128906 29.75 -21.929688 29 -21.703125 C 26.1875 -20.785156 23.785156 -19.910156 21.796875 -19.078125 C 19.804688 -18.242188 18.023438 -17.125 16.453125 -15.71875 C 14.890625 -14.320312 14.109375 -12.675781 14.109375 -10.78125 C 14.109375 -8.851562 14.640625 -7.332031 15.703125 -6.21875 C 16.765625 -5.113281 18.257812 -4.5625 20.1875 -4.5625 C 22.113281 -4.5625 23.972656 -5.039062 25.765625 -6 C 27.566406 -6.96875 29.265625 -8.234375 30.859375 -9.796875 Z M 30.859375 -22.296875 "/></g></g></g><g fill="#ffffff" fill-opacity="1"><g transform="translate(313.205451, 213.06397)"><g><path d="M 14.359375 -67.40625 C 15.921875 -67.40625 17.253906 -66.847656 18.359375 -65.734375 C 19.472656 -64.628906 20.03125 -63.289062 20.03125 -61.71875 C 20.03125 -60.125 19.472656 -58.78125 18.359375 -57.6875 C 17.253906 -56.59375 15.921875 -56.046875 14.359375 -56.046875 C 12.753906 -56.046875 11.40625 -56.59375 10.3125 -57.6875 C 9.21875 -58.78125 8.671875 -60.125 8.671875 -61.71875 C 8.671875 -63.289062 9.21875 -64.628906 10.3125 -65.734375 C 11.40625 -66.847656 12.753906 -67.40625 14.359375 -67.40625 Z M 10.4375 -35.609375 C 10.007812 -36.359375 9.210938 -37.035156 8.046875 -37.640625 C 6.890625 -38.242188 5.695312 -38.75 4.46875 -39.15625 C 3.25 -39.570312 2.640625 -39.765625 2.640625 -39.734375 L 2.75 -41.4375 L 16.515625 -44.78125 L 19.546875 -44.96875 L 19.546875 -10.78125 C 19.546875 -9.632812 19.664062 -8.554688 19.90625 -7.546875 C 20.15625 -6.535156 20.90625 -5.503906 22.15625 -4.453125 C 23.414062 -3.410156 25.40625 -2.742188 28.125 -2.453125 C 28.125 -1.367188 28.109375 -0.550781 28.078125 0 L 2.5 0 C 2.4375 -0.582031 2.40625 -1.398438 2.40625 -2.453125 L 3.765625 -2.84375 C 5.203125 -3.226562 6.363281 -3.617188 7.25 -4.015625 C 8.132812 -4.410156 8.882812 -4.988281 9.5 -5.75 C 10.125 -6.519531 10.4375 -7.554688 10.4375 -8.859375 Z M 10.4375 -35.609375 "/></g></g></g></svg>